# xmcd CD database file
#
# Track frame offsets:
#	150
#	11470
#	37621
#	55192
#	82731
#	107247
#	122770
#	146359
#	163701
#	187054
#	196359
#	216727
#	234830
#
# Disc length: 3723 seconds
#
# Revision: 0
# Processed by: cddbd v1.5.2PL0 Copyright (c) Steve Scherf et al.
# Submitted via: CDex 1.51
#
DISCID=a80e890d
DTITLE=Various Artist - Extraplatte - Label Presentation Vol. 7
DYEAR=2007
DGENRE=Jazz
TTITLE0=Velvet Voices - Essence
TTITLE1=Dragan Tabakovic Quartet - Live At The Royal Garden
TTITLE2=Berndt Luef and Jazztett Forum Graz - Correlations
TTITLE3=Karlheinz "Carlitos" Miklin and Quinteto Argentina - Aniversario
TTITLE4=Criss Cross - Crazy Moon
TTITLE5=Peter Natterer Quartett - The Passing
TTITLE6=Christian Mühlbacher - 05.04.01
TTITLE7=Paint - 6to6 String Dezibel
TTITLE8=Josef Klammer - Pieces For Synthetic Voices
TTITLE9=Pia Plame - Orhcidee
TTITLE10=Klammer and Gründler Duo - Berlin
TTITLE11=Sound Poetry Live II - Henri Chopin Remixed
TTITLE12=Josef Novotny and August Humer - Linzer Sinfonie
EXTD=YEAR: 2007
EXTT0=
EXTT1=
EXTT2=
EXTT3=
EXTT4=
EXTT5=
EXTT6=
EXTT7=
EXTT8=
EXTT9=
EXTT10=
EXTT11=
EXTT12=
PLAYORDER=
